<mxfile host="app.diagrams.net" modified="2020-08-25T07:30:50.263Z" agent="5.0 (Macintosh)" etag="4QmlEGRazd0i6zjWtIgW" version="13.6.5" type="github">
  <diagram id="H6hv9SiHKzZqjlDdeg75" name="Page-1">
    <mxGraphModel dx="925" dy="505" grid="1" gridSize="10" guides="1" tooltips="1" connect="1" arrows="1" fold="1" page="1" pageScale="1" pageWidth="827" pageHeight="1169" math="0" shadow="0">
      <root>
        <mxCell id="0" />
        <mxCell id="1" parent="0" />
        <mxCell id="lW4gXM_ckCu2pagRWVlF-2" value="&lt;div&gt;nach J. Bartels, H. Blum, J. Fündling, Die Antike. Grundzüge der griechischen und römischen Geschichte, Konstanz 2015, 69.&lt;/div&gt;" style="text;html=1;strokeColor=none;fillColor=none;align=center;verticalAlign=middle;whiteSpace=wrap;rounded=0;fontFamily=Cardo;" vertex="1" parent="1">
          <mxGeometry x="78" y="380" width="670" height="20" as="geometry" />
        </mxCell>
        <mxCell id="lW4gXM_ckCu2pagRWVlF-3" value="&lt;b&gt;&lt;font style=&quot;font-size: 16px&quot; face=&quot;Cardo&quot;&gt;Die Verfassung Spartas&lt;br&gt;&lt;/font&gt;&lt;/b&gt;" style="text;html=1;strokeColor=none;fillColor=none;align=center;verticalAlign=middle;whiteSpace=wrap;rounded=0;" vertex="1" parent="1">
          <mxGeometry x="319" y="20" width="190" height="20" as="geometry" />
        </mxCell>
        <mxCell id="lW4gXM_ckCu2pagRWVlF-4" value="&lt;div&gt;&lt;b&gt;&lt;font face=&quot;Cardo&quot;&gt;5 Ephoren&lt;/font&gt;&lt;/b&gt;&lt;/div&gt;&lt;div&gt;&lt;font face=&quot;Cardo&quot;&gt;(Spartiaten über 30 Jahre)&lt;/font&gt;&lt;/div&gt;&lt;div&gt;&lt;font face=&quot;Cardo&quot;&gt;(Verwaltung der Staatskasse, &lt;br&gt;&lt;/font&gt;&lt;/div&gt;&lt;div&gt;&lt;font face=&quot;Cardo&quot;&gt;Truppenaushebung,&lt;/font&gt;&lt;/div&gt;&lt;div&gt;&lt;font face=&quot;Cardo&quot;&gt;weitgehende Aufsichts- und Strafkompetenz&lt;br&gt;&lt;/font&gt;&lt;/div&gt;" style="rounded=1;whiteSpace=wrap;html=1;" vertex="1" parent="1">
          <mxGeometry x="540" y="50" width="260" height="110" as="geometry" />
        </mxCell>
        <mxCell id="lW4gXM_ckCu2pagRWVlF-5" value="" style="rounded=1;whiteSpace=wrap;html=1;" vertex="1" parent="1">
          <mxGeometry x="40" y="300" width="760" height="60" as="geometry" />
        </mxCell>
        <mxCell id="lW4gXM_ckCu2pagRWVlF-6" value="&lt;div&gt;&lt;font face=&quot;Cardo&quot;&gt;wählen &lt;br&gt;&lt;/font&gt;&lt;/div&gt;&lt;div&gt;&lt;font face=&quot;Cardo&quot;&gt;durch Geschrei nach Lautstärke für 1 Jahr&lt;/font&gt;&lt;/div&gt;" style="rounded=1;whiteSpace=wrap;html=1;" vertex="1" parent="1">
          <mxGeometry x="690" y="200" width="90" height="60" as="geometry" />
        </mxCell>
        <mxCell id="lW4gXM_ckCu2pagRWVlF-7" value="&lt;div&gt;&lt;font face=&quot;Cardo&quot;&gt;berufen ein&lt;/font&gt;&lt;/div&gt;&lt;div&gt;&lt;font face=&quot;Cardo&quot;&gt;und leiten&lt;/font&gt;&lt;/div&gt;" style="rounded=1;whiteSpace=wrap;html=1;" vertex="1" parent="1">
          <mxGeometry x="550" y="200" width="90" height="60" as="geometry" />
        </mxCell>
      </root>
    </mxGraphModel>
  </diagram>
</mxfile>
